<svg xmlns="http://www.w3.org/2000/svg" width="2400" height="500" opacity=".4"><path d="M1162 987l-1410 1 1574 14z" fill="#6285ae" stroke="#6285ae" stroke-width="1.51"/><path d="M694-734l1131 217 118-27z" fill="#6a8db6" stroke="#6a8db6" stroke-width="1.51"/><path d="M694-734l1249 190 499-99z" fill="#6083ac" stroke="#6083ac" stroke-width="1.51"/><path d="M2442-643l71 214 516 785z" fill="#2e4d71" stroke="#2e4d71" stroke-width="1.51"/><path d="M2513-429l48 213 468 572z" fill="#27415f" stroke="#27415f" stroke-width="1.51"/><path d="M2662 270l-60 222 427-136z" fill="#1c2d42" stroke="#1c2d42" stroke-width="1.51"/><path d="M2602 492l-77 424 504-560z" fill="#263f5d" stroke="#263f5d" stroke-width="1.51"/><path d="M2614 59l48 211 367 86z" fill="#182636" stroke="#182636" stroke-width="1.51"/><path d="M2561-216l53 275 415 297z" fill="#1f334b" stroke="#1f334b" stroke-width="1.51"/><path d="M2513-429l-14 161 62 52z" fill="#37587f" stroke="#37587f" stroke-width="1.51"/><path d="M2255 440l270 476 77-424z" fill="#334d6d" stroke="#334d6d" stroke-width="1.51"/><path d="M2561-216l-20 33 73 242z" fill="#2d4867" stroke="#2d4867" stroke-width="1.51"/><path d="M2541-183l-43 214 116 28z" fill="#2b435e" stroke="#2b435e" stroke-width="1.51"/><path d="M2614 59l-57 231 105-20z" fill="#202f41" stroke="#202f41" stroke-width="1.51"/><path d="M2557 290l45 202 60-222z" fill="#223347" stroke="#223347" stroke-width="1.51"/><path d="M2498 31l-103 23 162 236z" fill="#293b50" stroke="#293b50" stroke-width="1.51"/><path d="M2557 290l-302 150 347 52z" fill="#2b3e54" stroke="#2b3e54" stroke-width="1.51"/><path d="M2498 31l59 259 57-231z" fill="#26374c" stroke="#26374c" stroke-width="1.51"/><path d="M2255 440l-262 530 532-54z" fill="#426388" stroke="#426388" stroke-width="1.51"/><path d="M2320-142l178 173 43-214z" fill="#334d6b" stroke="#334d6b" stroke-width="1.51"/><path d="M2499-268l42 85 20-33z" fill="#335275" stroke="#335275" stroke-width="1.51"/><path d="M2395 54l-140 386 302-150z" fill="#293747" stroke="#293747" stroke-width="1.51"/><path d="M1575 926l-249 76 667-32z" fill="#6386af" stroke="#6386af" stroke-width="1.51"/><path d="M2320-142l75 196 103-23z" fill="#324964" stroke="#324964" stroke-width="1.51"/><path d="M2499-268l-179 126 221-41z" fill="#365476" stroke="#365476" stroke-width="1.51"/><path d="M2170 390l85 50 140-386z" fill="#303f51" stroke="#303f51" stroke-width="1.51"/><path d="M2442-643l-433 202 504 12z" fill="#42658e" stroke="#42658e" stroke-width="1.51"/><path d="M2009-441l26 128 478-116z" fill="#486b94" stroke="#486b94" stroke-width="1.51"/><path d="M2320-142l179-126 14-161z" fill="#3a5a80" stroke="#3a5a80" stroke-width="1.51"/><path d="M2035-313l285 171 193-287z" fill="#416289" stroke="#416289" stroke-width="1.51"/><path d="M1888 614l105 356 262-530z" fill="#496687" stroke="#496687" stroke-width="1.51"/><path d="M2084 174l86 216 225-336z" fill="#334253" stroke="#334253" stroke-width="1.51"/><path d="M1943-544l66 103 433-202z" fill="#4b6e97" stroke="#4b6e97" stroke-width="1.51"/><path d="M2320-142l-236 316 311-120z" fill="#374c65" stroke="#374c65" stroke-width="1.51"/><path d="M694-734l493 290 638-73z" fill="#7699c2" stroke="#7699c2" stroke-width="1.51"/><path d="M2038 390l-150 224 282-224z" fill="#425770" stroke="#425770" stroke-width="1.51"/><path d="M2170 390l-282 224 367-174z" fill="#3f556e" stroke="#3f556e" stroke-width="1.51"/><path d="M1931 90l153 84 236-316z" fill="#3e536b" stroke="#3e536b" stroke-width="1.51"/><path d="M2035-313L1931 90l389-232z" fill="#455f7f" stroke="#455f7f" stroke-width="1.51"/><path d="M1817-132l114 222 104-403z" fill="#4c6786" stroke="#4c6786" stroke-width="1.51"/><path d="M2084 174l-46 216h132z" fill="#3a495c" stroke="#3a495c" stroke-width="1.51"/><path d="M1925 408l-37 206 150-224z" fill="#465b74" stroke="#465b74" stroke-width="1.51"/><path d="M1867 243l171 147 46-216z" fill="#3d4b5b" stroke="#3d4b5b" stroke-width="1.51"/><path d="M1931 90l-64 153 217-69z" fill="#415164" stroke="#415164" stroke-width="1.51"/><path d="M183 849l-431 139 1410-1z" fill="#50739c" stroke="#50739c" stroke-width="1.51"/><path d="M2009-441l-255 75 281 53z" fill="#5477a0" stroke="#5477a0" stroke-width="1.51"/><path d="M1754-366l63 234 218-181z" fill="#55759a" stroke="#55759a" stroke-width="1.51"/><path d="M1867 243l58 165 113-18z" fill="#425367" stroke="#425367" stroke-width="1.51"/><path d="M1888 614l-313 312 418 44z" fill="#597ca4" stroke="#597ca4" stroke-width="1.51"/><path d="M1943-544l-118 27 184 76z" fill="#5578a1" stroke="#5578a1" stroke-width="1.51"/><path d="M1825-517l-71 151 255-75z" fill="#587ba4" stroke="#587ba4" stroke-width="1.51"/><path d="M1847 399l-99 111 140 104z" fill="#4d647e" stroke="#4d647e" stroke-width="1.51"/><path d="M1847 399l41 215 37-206z" fill="#495f78" stroke="#495f78" stroke-width="1.51"/><path d="M1867 243l-20 156 78 9z" fill="#45566a" stroke="#45566a" stroke-width="1.51"/><path d="M1781 311l66 88 20-156z" fill="#465669" stroke="#465669" stroke-width="1.51"/><path d="M1817-132l50 375 64-153z" fill="#485d74" stroke="#485d74" stroke-width="1.51"/><path d="M1817-132l-286 408 336-33z" fill="#4d5e73" stroke="#4d5e73" stroke-width="1.51"/><path d="M1531 276l250 35 86-68z" fill="#4a5869" stroke="#4a5869" stroke-width="1.51"/><path d="M1748 510l-173 416 313-312z" fill="#587597" stroke="#587597" stroke-width="1.51"/><path d="M1363-50l168 326 286-408z" fill="#586d86" stroke="#586d86" stroke-width="1.51"/><path d="M1781 311l-3 4 69 84z" fill="#49596d" stroke="#49596d" stroke-width="1.51"/><path d="M1778 315l-92 118 161-34z" fill="#4b5e73" stroke="#4b5e73" stroke-width="1.51"/><path d="M1686 433l62 77 99-111z" fill="#4e637b" stroke="#4e637b" stroke-width="1.51"/><path d="M1374 678l201 248 173-416z" fill="#617fa1" stroke="#617fa1" stroke-width="1.51"/><path d="M1548 299l54 43 179-31z" fill="#4f5f71" stroke="#4f5f71" stroke-width="1.51"/><path d="M1531 276l17 23 233 12z" fill="#505f70" stroke="#505f70" stroke-width="1.51"/><path d="M1282-333l472-33 71-151z" fill="#6386af" stroke="#6386af" stroke-width="1.51"/><path d="M1187-444l95 111 543-184z" fill="#6c8fb8" stroke="#6c8fb8" stroke-width="1.51"/><path d="M1754-366L1363-50l454-82z" fill="#5c799b" stroke="#5c799b" stroke-width="1.51"/><path d="M1678 449l-303 160 373-99z" fill="#59708b" stroke="#59708b" stroke-width="1.51"/><path d="M1375 609l-1 69 374-168z" fill="#607a99" stroke="#607a99" stroke-width="1.51"/><path d="M1282-333l81 283 391-316z" fill="#6787ab" stroke="#6787ab" stroke-width="1.51"/><path d="M1602 342l84 91 92-118z" fill="#4f6075" stroke="#4f6075" stroke-width="1.51"/><path d="M1602 342l176-27 3-4z" fill="#4c5c6e" stroke="#4c5c6e" stroke-width="1.51"/><path d="M1686 433l-8 16 70 61z" fill="#52677f" stroke="#52677f" stroke-width="1.51"/><path d="M1520 423l-145 186 303-160z" fill="#5b718b" stroke="#5b718b" stroke-width="1.51"/><path d="M1602 342l76 107 8-16z" fill="#52657b" stroke="#52657b" stroke-width="1.51"/><path d="M1602 342l-82 81 158 26z" fill="#54677e" stroke="#54677e" stroke-width="1.51"/><path d="M694-734l396 291 97-1z" fill="#6d90b9" stroke="#6d90b9" stroke-width="1.51"/><path d="M1363-50l-50 305 218 21z" fill="#5c6c80" stroke="#5c6c80" stroke-width="1.51"/><path d="M1374 678l-55 147 256 101z" fill="#6b8db4" stroke="#6b8db4" stroke-width="1.51"/><path d="M1548 299l-28 124 82-81z" fill="#55667a" stroke="#55667a" stroke-width="1.51"/><path d="M1362 491l13 118 145-186z" fill="#617792" stroke="#617792" stroke-width="1.51"/><path d="M1319 825l7 177 249-76z" fill="#6e91ba" stroke="#6e91ba" stroke-width="1.51"/><path d="M1313 255l207 168 11-147z" fill="#58687b" stroke="#58687b" stroke-width="1.51"/><path d="M1531 276l-11 147 28-124z" fill="#556679" stroke="#556679" stroke-width="1.51"/><path d="M1313 255l49 236 158-68z" fill="#5e7085" stroke="#5e7085" stroke-width="1.51"/><path d="M1313 255l-183 105 232 131z" fill="#637589" stroke="#637589" stroke-width="1.51"/><path d="M1190-44l123 299 50-305z" fill="#657991" stroke="#657991" stroke-width="1.51"/><path d="M1282-333l-92 289 173-6z" fill="#6c88a8" stroke="#6c88a8" stroke-width="1.51"/><path d="M1062 616l257 209 55-147z" fill="#708eb1" stroke="#708eb1" stroke-width="1.51"/><path d="M1360 606l14 72 1-69z" fill="#6883a2" stroke="#6883a2" stroke-width="1.51"/><path d="M1362 491l-2 115 15 3z" fill="#657e9b" stroke="#657e9b" stroke-width="1.51"/><path d="M1360 606l-298 10 312 62z" fill="#6d88a8" stroke="#6d88a8" stroke-width="1.51"/><path d="M1319 825l-157 162 164 15z" fill="#7497c0" stroke="#7497c0" stroke-width="1.51"/><path d="M1062 616l298-10 2-115z" fill="#6b84a1" stroke="#6b84a1" stroke-width="1.51"/><path d="M1130 360l-68 256 300-125z" fill="#6a809a" stroke="#6a809a" stroke-width="1.51"/><path d="M1190-44l-89 331 212-32z" fill="#657589" stroke="#657589" stroke-width="1.51"/><path d="M1062 616l100 371 157-162z" fill="#7597be" stroke="#7597be" stroke-width="1.51"/><path d="M1101 287l29 73 183-105z" fill="#637284" stroke="#637284" stroke-width="1.51"/><path d="M1187-444l-97 1 192 110z" fill="#779ac3" stroke="#779ac3" stroke-width="1.51"/><path d="M910-276l280 232 92-289z" fill="#6f8eb1" stroke="#6f8eb1" stroke-width="1.51"/><path d="M1090-443L910-276l372-57z" fill="#7295be" stroke="#7295be" stroke-width="1.51"/><path d="M944 184l157 103 89-331z" fill="#607185" stroke="#607185" stroke-width="1.51"/><path d="M910-276l34 460 246-228z" fill="#647c98" stroke="#647c98" stroke-width="1.51"/><path d="M694-734l25 243 371 48z" fill="#6689b2" stroke="#6689b2" stroke-width="1.51"/><path d="M901 542l161 74 68-256z" fill="#637a94" stroke="#637a94" stroke-width="1.51"/><path d="M1062 616l-161-74 261 445z" fill="#6b89ad" stroke="#6b89ad" stroke-width="1.51"/><path d="M901 542L183 849l979 138z" fill="#6081a7" stroke="#6081a7" stroke-width="1.51"/><path d="M964 307l-95 117 261-64z" fill="#5c6d82" stroke="#5c6d82" stroke-width="1.51"/><path d="M869 424l32 118 229-182z" fill="#5e728a" stroke="#5e728a" stroke-width="1.51"/><path d="M1101 287l-137 20 166 53z" fill="#5e6e80" stroke="#5e6e80" stroke-width="1.51"/><path d="M944 184l20 123 137-20z" fill="#596777" stroke="#596777" stroke-width="1.51"/><path d="M910-276L724 172l220 12z" fill="#5a6f88" stroke="#5a6f88" stroke-width="1.51"/><path d="M719-491l191 215 180-167z" fill="#698cb5" stroke="#698cb5" stroke-width="1.51"/><path d="M719-491l28 141 163 74z" fill="#6487b0" stroke="#6487b0" stroke-width="1.51"/><path d="M302 566L183 849l718-307z" fill="#4d698a" stroke="#4d698a" stroke-width="1.51"/><path d="M747-350l-23 522 186-448z" fill="#5d7999" stroke="#5d7999" stroke-width="1.51"/><path d="M944 184l-220-12 240 135z" fill="#546273" stroke="#546273" stroke-width="1.51"/><path d="M724 172l145 252 95-117z" fill="#536374" stroke="#536374" stroke-width="1.51"/><path d="M507 124l217 48 23-522z" fill="#526984" stroke="#526984" stroke-width="1.51"/><path d="M724 172L622 363l247 61z" fill="#4e5e71" stroke="#4e5e71" stroke-width="1.51"/><path d="M622 363L302 566l599-24z" fill="#4e647e" stroke="#4e647e" stroke-width="1.51"/><path d="M869 424l-247-61 279 179z" fill="#566a82" stroke="#566a82" stroke-width="1.51"/><path d="M394 393l-92 173 320-203z" fill="#445970" stroke="#445970" stroke-width="1.51"/><path d="M694-734l-138 52 163 191z" fill="#5e81aa" stroke="#5e81aa" stroke-width="1.51"/><path d="M556-682l79 218 84-27z" fill="#5d80a9" stroke="#5d80a9" stroke-width="1.51"/><path d="M635-464l-321 64 433 50z" fill="#597ca5" stroke="#597ca5" stroke-width="1.51"/><path d="M314-400l193 524 240-474z" fill="#527093" stroke="#527093" stroke-width="1.51"/><path d="M719-491l-84 27 112 114z" fill="#6083ac" stroke="#6083ac" stroke-width="1.51"/><path d="M507 124l115 239 102-191z" fill="#475667" stroke="#475667" stroke-width="1.51"/><path d="M507 124l-87 114 202 125z" fill="#424f5f" stroke="#424f5f" stroke-width="1.51"/><path d="M556-682L314-400l321-64z" fill="#5679a2" stroke="#5679a2" stroke-width="1.51"/><path d="M314-400L50-57l457 181z" fill="#435e7d" stroke="#435e7d" stroke-width="1.51"/><path d="M420 238l-26 155 228-30z" fill="#425366" stroke="#425366" stroke-width="1.51"/><path d="M380 288l14 105 26-155z" fill="#3e4d5f" stroke="#3e4d5f" stroke-width="1.51"/><path d="M50-57l161 240 296-59z" fill="#3b4e65" stroke="#3b4e65" stroke-width="1.51"/><path d="M-314-358l628-42 242-282z" fill="#476a93" stroke="#476a93" stroke-width="1.51"/><path d="M380 288l-2 4 16 101z" fill="#3e4e60" stroke="#3e4e60" stroke-width="1.51"/><path d="M211 183l209 55 87-114z" fill="#3d4d60" stroke="#3d4d60" stroke-width="1.51"/><path d="M378 292l-54 54 70 47z" fill="#3d4e62" stroke="#3d4e62" stroke-width="1.51"/><path d="M233 212l147 76 40-50z" fill="#394757" stroke="#394757" stroke-width="1.51"/><path d="M211 183l22 29 187 26z" fill="#384758" stroke="#384758" stroke-width="1.51"/><path d="M324 346l-22 220 92-173z" fill="#40546b" stroke="#40546b" stroke-width="1.51"/><path d="M233 212l91 134 54-54z" fill="#394758" stroke="#394758" stroke-width="1.51"/><path d="M233 212l145 80 2-4z" fill="#394757" stroke="#394757" stroke-width="1.51"/><path d="M50-57L30 35l181 148z" fill="#344961" stroke="#344961" stroke-width="1.51"/><path d="M83 360L44 559l258 7z" fill="#384f68" stroke="#384f68" stroke-width="1.51"/><path d="M44 559l139 290 119-283z" fill="#405c7d" stroke="#405c7d" stroke-width="1.51"/><path d="M83 360l219 206 22-220z" fill="#3a4e65" stroke="#3a4e65" stroke-width="1.51"/><path d="M149 282l-66 78 241-14z" fill="#344558" stroke="#344558" stroke-width="1.51"/><path d="M233 212l-84 70 175 64z" fill="#354454" stroke="#354454" stroke-width="1.51"/><path d="M-314-358L50-57l264-343z" fill="#3c5c82" stroke="#3c5c82" stroke-width="1.51"/><path d="M44 559l-68 33 207 257z" fill="#3b5778" stroke="#3b5778" stroke-width="1.51"/><path d="M211 183l-62 99 84-70z" fill="#334152" stroke="#334152" stroke-width="1.51"/><path d="M30 35l119 247 62-99z" fill="#324255" stroke="#324255" stroke-width="1.51"/><path d="M-24 592l-102 57 309 200z" fill="#395779" stroke="#395779" stroke-width="1.51"/><path d="M-126 649l-122 339 431-139z" fill="#3a5d85" stroke="#3a5d85" stroke-width="1.51"/><path d="M-170 128L83 360l66-78z" fill="#2a3847" stroke="#2a3847" stroke-width="1.51"/><path d="M30 35l-200 93 319 154z" fill="#2c3e51" stroke="#2c3e51" stroke-width="1.51"/><path d="M-290-43l93 56L50-57z" fill="#2c435f" stroke="#2c435f" stroke-width="1.51"/><path d="M-314-358l24 315L50-57z" fill="#2e4a6b" stroke="#2e4a6b" stroke-width="1.51"/><path d="M-24 592l68-33 39-199z" fill="#334a64" stroke="#334a64" stroke-width="1.51"/><path d="M-226 381l202 211L83 360z" fill="#2d4159" stroke="#2d4159" stroke-width="1.51"/><path d="M-170 128l-56 253 309-21z" fill="#253445" stroke="#253445" stroke-width="1.51"/><path d="M-197 13L30 35l20-92z" fill="#304661" stroke="#304661" stroke-width="1.51"/><path d="M-197 13l27 115L30 35z" fill="#2a3e56" stroke="#2a3e56" stroke-width="1.51"/><path d="M-258 179l32 202 56-253z" fill="#1f2d3e" stroke="#1f2d3e" stroke-width="1.51"/><path d="M-226 381l100 268 102-57z" fill="#2d4561" stroke="#2d4561" stroke-width="1.51"/><path d="M-226 381l-446-116 546 384z" fill="#1f334a" stroke="#1f334a" stroke-width="1.51"/><path d="M-672 265l424 723 122-339z" fill="#264161" stroke="#264161" stroke-width="1.51"/><path d="M-197 13l-61 166 88-51z" fill="#24364c" stroke="#24364c" stroke-width="1.51"/><path d="M-314-358L-491-98l201 55z" fill="#264364" stroke="#264364" stroke-width="1.51"/><path d="M-290-43l32 222 61-166z" fill="#243951" stroke="#243951" stroke-width="1.51"/><path d="M-290-43l-134 223 166-1z" fill="#1e3147" stroke="#1e3147" stroke-width="1.51"/><path d="M-258 179l-166 1 198 201z" fill="#1a2838" stroke="#1a2838" stroke-width="1.51"/><path d="M-424 180l-248 85 446 116z" fill="#162535" stroke="#162535" stroke-width="1.51"/><path d="M-491-98l67 278 134-223z" fill="#1e344e" stroke="#1e344e" stroke-width="1.51"/><path d="M-491-98l-181 363 248-85z" fill="#1a2d42" stroke="#1a2d42" stroke-width="1.51"/></svg>
